{
    "asset" : {
        "generator" : "Khronos glTF Blender I/O v1.5.17",
        "version" : "2.0"
    },
    "extensionsUsed" : [
        "KHR_materials_unlit"
    ],
    "scene" : 0,
    "scenes" : [
        {
            "name" : "Scene",
            "nodes" : [
                0,
                1,
                2,
                3,
                4,
                5,
                6
            ]
        }
    ],
    "nodes" : [
        {
            "mesh" : 0,
            "name" : "Bottle.001",
            "rotation" : [
                0,
                -0.10744272917509079,
                0,
                0.9942113757133484
            ],
            "scale" : [
                0.37813007831573486,
                0.37813007831573486,
                0.37813007831573486
            ],
            "translation" : [
                0.8596474528312683,
                0.1146843433380127,
                0.1250363290309906
            ]
        },
        {
            "mesh" : 1,
            "name" : "Sticker.001",
            "rotation" : [
                0,
                -0.10744272917509079,
                0,
                0.9942113757133484
            ],
            "scale" : [
                0.37853237986564636,
                0.37853237986564636,
                0.37853237986564636
            ],
            "translation" : [
                0.8596474528312683,
                1.6573008298873901,
                0.1250363290309906
            ]
        },
        {
            "mesh" : 2,
            "name" : "Straw.001",
            "rotation" : [
                0.006667729001492262,
                -0.10723559558391571,
                -0.06169922649860382,
                0.99229496717453
            ],
            "scale" : [
                0.04150283709168434,
                0.057256001979112625,
                0.04150283336639404
            ],
            "translation" : [
                0.5872994065284729,
                0.255267858505249,
                0.06798883527517319
            ]
        },
        {
            "name" : "\u00c1rea",
            "rotation" : [
                0.621108889579773,
                0.3379700481891632,
                -0.3379700481891632,
                0.621108889579773
            ],
            "translation" : [
                3.948256015777588,
                2.1847422122955322,
                2.2760894298553467
            ]
        },
        {
            "mesh" : 3,
            "name" : "Floor",
            "rotation" : [
                0,
                -0.2507699728012085,
                0,
                0.9680467247962952
            ],
            "scale" : [
                8.845996856689453,
                5.421469688415527,
                5.421469688415527
            ],
            "translation" : [
                1.573380947113037,
                0,
                0.8120676279067993
            ]
        },
        {
            "name" : "\u00c1rea.001",
            "rotation" : [
                0.6182364821434021,
                -0.3431962728500366,
                0.343196302652359,
                0.6182364225387573
            ],
            "translation" : [
                -5.356685161590576,
                2.1847422122955322,
                3.7916669845581055
            ]
        },
        {
            "name" : "Camera",
            "rotation" : [
                0.5394865870475769,
                -0.19665130972862244,
                0.12891969084739685,
                0.8084937930107117
            ],
            "scale" : [
                1.5176094770431519,
                1.5176094770431519,
                1.5176095962524414
            ],
            "translation" : [
                -2.5215797424316406,
                5.524526119232178,
                7.457665920257568
            ]
        }
    ],
    "materials" : [
        {
            "doubleSided" : true,
            "name" : "Material",
            "pbrMetallicRoughness" : {
                "baseColorFactor" : [
                    0,
                    0,
                    0,
                    1
                ],
                "metallicFactor" : 0,
                "roughnessFactor" : 0.5
            }
        },
        {
            "doubleSided" : true,
            "name" : "Material.003",
            "pbrMetallicRoughness" : {
                "baseColorFactor" : [
                    0.20791664719581604,
                    0.0028282240964472294,
                    0.007301253266632557,
                    1
                ],
                "metallicFactor" : 0,
                "roughnessFactor" : 0.5
            }
        },
        {
            "doubleSided" : true,
            "name" : "Material.002",
            "pbrMetallicRoughness" : {
                "baseColorFactor" : [
                    0.72304368019104,
                    0.5107951164245605,
                    0.04881955683231354,
                    1
                ],
                "metallicFactor" : 0,
                "roughnessFactor" : 0.5
            }
        },
        {
            "doubleSided" : true,
            "extensions" : {
                "KHR_materials_unlit" : {}
            },
            "name" : "Floor.002",
            "pbrMetallicRoughness" : {
                "baseColorFactor" : [
                    0.5173337459564209,
                    0.5173337459564209,
                    0.5173337459564209,
                    1
                ],
                "metallicFactor" : 0,
                "roughnessFactor" : 0.9
            }
        }
    ],
    "meshes" : [
        {
            "name" : "Circle.008",
            "primitives" : [
                {
                    "attributes" : {
                        "POSITION" : 0,
                        "NORMAL" : 1
                    },
                    "indices" : 2,
                    "material" : 0
                }
            ]
        },
        {
            "name" : "Circle.007",
            "primitives" : [
                {
                    "attributes" : {
                        "POSITION" : 3,
                        "NORMAL" : 4,
                        "TEXCOORD_0" : 5
                    },
                    "indices" : 6,
                    "material" : 1
                }
            ]
        },
        {
            "name" : "Circle.006",
            "primitives" : [
                {
                    "attributes" : {
                        "POSITION" : 7,
                        "NORMAL" : 8
                    },
                    "indices" : 9,
                    "material" : 2
                }
            ]
        },
        {
            "name" : "Plane",
            "primitives" : [
                {
                    "attributes" : {
                        "POSITION" : 10,
                        "NORMAL" : 11
                    },
                    "indices" : 12,
                    "material" : 3
                }
            ]
        }
    ],
    "accessors" : [
        {
            "bufferView" : 0,
            "componentType" : 5126,
            "count" : 2163,
            "max" : [
                1.2024463415145874,
                8.015190124511719,
                1.2024462223052979
            ],
            "min" : [
                -1.2024462223052979,
                -0.03660132735967636,
                -1.2024461030960083
            ],
            "type" : "VEC3"
        },
        {
            "bufferView" : 1,
            "componentType" : 5126,
            "count" : 2163,
            "type" : "VEC3"
        },
        {
            "bufferView" : 2,
            "componentType" : 5123,
            "count" : 13056,
            "type" : "SCALAR"
        },
        {
            "bufferView" : 3,
            "componentType" : 5126,
            "count" : 99,
            "max" : [
                1.1692688465118408,
                0.7158546447753906,
                1.1692686080932617
            ],
            "min" : [
                -1.1692688465118408,
                -0.6917407512664795,
                -1.1692688465118408
            ],
            "type" : "VEC3"
        },
        {
            "bufferView" : 4,
            "componentType" : 5126,
            "count" : 99,
            "type" : "VEC3"
        },
        {
            "bufferView" : 5,
            "componentType" : 5126,
            "count" : 99,
            "type" : "VEC2"
        },
        {
            "bufferView" : 6,
            "componentType" : 5123,
            "count" : 384,
            "type" : "SCALAR"
        },
        {
            "bufferView" : 7,
            "componentType" : 5126,
            "count" : 16,
            "max" : [
                1,
                61.665401458740234,
                1
            ],
            "min" : [
                -1,
                0,
                -1
            ],
            "type" : "VEC3"
        },
        {
            "bufferView" : 8,
            "componentType" : 5126,
            "count" : 16,
            "type" : "VEC3"
        },
        {
            "bufferView" : 9,
            "componentType" : 5123,
            "count" : 48,
            "type" : "SCALAR"
        },
        {
            "bufferView" : 10,
            "componentType" : 5126,
            "count" : 10,
            "max" : [
                1,
                1.726318359375,
                1
            ],
            "min" : [
                -1,
                0,
                -1.491107702255249
            ],
            "type" : "VEC3"
        },
        {
            "bufferView" : 11,
            "componentType" : 5126,
            "count" : 10,
            "type" : "VEC3"
        },
        {
            "bufferView" : 12,
            "componentType" : 5123,
            "count" : 24,
            "type" : "SCALAR"
        }
    ],
    "bufferViews" : [
        {
            "buffer" : 0,
            "byteLength" : 25956,
            "byteOffset" : 0
        },
        {
            "buffer" : 0,
            "byteLength" : 25956,
            "byteOffset" : 25956
        },
        {
            "buffer" : 0,
            "byteLength" : 26112,
            "byteOffset" : 51912
        },
        {
            "buffer" : 0,
            "byteLength" : 1188,
            "byteOffset" : 78024
        },
        {
            "buffer" : 0,
            "byteLength" : 1188,
            "byteOffset" : 79212
        },
        {
            "buffer" : 0,
            "byteLength" : 792,
            "byteOffset" : 80400
        },
        {
            "buffer" : 0,
            "byteLength" : 768,
            "byteOffset" : 81192
        },
        {
            "buffer" : 0,
            "byteLength" : 192,
            "byteOffset" : 81960
        },
        {
            "buffer" : 0,
            "byteLength" : 192,
            "byteOffset" : 82152
        },
        {
            "buffer" : 0,
            "byteLength" : 96,
            "byteOffset" : 82344
        },
        {
            "buffer" : 0,
            "byteLength" : 120,
            "byteOffset" : 82440
        },
        {
            "buffer" : 0,
            "byteLength" : 120,
            "byteOffset" : 82560
        },
        {
            "buffer" : 0,
            "byteLength" : 48,
            "byteOffset" : 82680
        }
    ],
    "buffers" : [
        {
            "byteLength" : 82728,
            "uri" : "data:application/octet-stream;base64,"
        }
    ]
}
